/* XPM */
static char * vestigo_icn_xpm[] = {
"48 48 404 2",
"  	c None",
". 	c #5F6977",
"+ 	c #606B7A",
"@ 	c #626E7C",
"# 	c #64707E",
"$ 	c #667281",
"% 	c #687483",
"& 	c #697685",
"* 	c #58616F",
"= 	c #5A6472",
"- 	c #5C6674",
"; 	c #5E6876",
"> 	c #606A79",
", 	c #616D7B",
"' 	c #636F7D",
") 	c #657180",
"! 	c #677382",
"~ 	c #697684",
"{ 	c #6A7887",
"] 	c #6C7A89",
"^ 	c #6E7C8B",
"/ 	c #545C6A",
"( 	c #565E6C",
"_ 	c #57606E",
": 	c #596270",
"< 	c #5B6573",
"[ 	c #858D98",
"} 	c #AFB4BB",
"| 	c #BABFC5",
"1 	c #D8DBDE",
"2 	c #B2B8BF",
"3 	c #A9B0B8",
"4 	c #848F9A",
"5 	c #6A7785",
"6 	c #6B7988",
"7 	c #6D7B8A",
"8 	c #6F7E8C",
"9 	c #71808E",
"0 	c #515966",
"a 	c #535B69",
"b 	c #555D6B",
"c 	c #6C7380",
"d 	c #C1C4C9",
"e 	c #F5F5F6",
"f 	c #D4EBF7",
"g 	c #A9D8EF",
"h 	c #8DCCEA",
"i 	c #8ECDEB",
"j 	c #8FCEEC",
"k 	c #C7E7F6",
"l 	c #F1F9FD",
"m 	c #ECEEF0",
"n 	c #B5BCC3",
"o 	c #768390",
"p 	c #707F8D",
"q 	c #728190",
"r 	c #4E5563",
"s 	c #505765",
"t 	c #525A67",
"u 	c #A9ADB4",
"v 	c #F4F5F6",
"w 	c #98CDEA",
"x 	c #339ED6",
"y 	c #1892D2",
"z 	c #1995D4",
"A 	c #1B97D5",
"B 	c #1D9AD7",
"C 	c #1F9CD8",
"D 	c #209FDA",
"E 	c #22A1DC",
"F 	c #76C6EA",
"G 	c #D6EEF9",
"H 	c #EDEEF0",
"I 	c #9BA5AF",
"J 	c #71808F",
"K 	c #728291",
"L 	c #4C525F",
"M 	c #4E5462",
"N 	c #5A616E",
"O 	c #BEC1C6",
"P 	c #D2E9F5",
"Q 	c #2F99D3",
"R 	c #138CCE",
"S 	c #158FD0",
"T 	c #1791D1",
"U 	c #1994D3",
"V 	c #1A96D4",
"W 	c #1C99D6",
"X 	c #1E9BD8",
"Y 	c #209DD9",
"Z 	c #21A0DB",
"` 	c #23A2DC",
" .	c #25A5DE",
"..	c #85CDED",
"+.	c #FFFFFF",
"@.	c #A5AEB7",
"#.	c #707F8E",
"$.	c #748392",
"%.	c #494F5C",
"&.	c #4B515E",
"*.	c #4D5361",
"=.	c #C8CACE",
"-.	c #A5D1EB",
";.	c #0F86CA",
">.	c #1189CC",
",.	c #138BCD",
"'.	c #148ECF",
").	c #1690D0",
"!.	c #1893D2",
"~.	c #1B98D5",
"{.	c #24A4DD",
"].	c #26A6DF",
"^.	c #50B9E6",
"/.	c #F2FAFD",
"(.	c #A5AFB8",
"_.	c #738291",
":.	c #484E5B",
"<.	c #4A505D",
"[.	c #A5A8AF",
"}.	c #D2E8F5",
"|.	c #C3E1F2",
"1.	c #C4E2F2",
"2.	c #C4E3F3",
"3.	c #C5E3F3",
"4.	c #C5E4F4",
"5.	c #C6E4F4",
"6.	c #C6E5F4",
"7.	c #80C6E8",
"8.	c #209ED9",
"9.	c #26A7E0",
"0.	c #5EBFE9",
"a.	c #949FAA",
"b.	c #3A3C49",
"c.	c #464A58",
"d.	c #474C5A",
"e.	c #606570",
"f.	c #1F9DD9",
"g.	c #219FDA",
"h.	c #27A9E1",
"i.	c #A1DAF2",
"j.	c #EDEFF1",
"k.	c #758493",
"l.	c #454957",
"m.	c #474B59",
"n.	c #BABCC1",
"o.	c #9BD1EC",
"p.	c #23A3DD",
"q.	c #27A8E0",
"r.	c #36AFE3",
"s.	c #A6AFB9",
"t.	c #748493",
"u.	c #434653",
"v.	c #444855",
"w.	c #515662",
"x.	c #1683C6",
"y.	c #087DC4",
"z.	c #0A7FC5",
"A.	c #0C82C7",
"B.	c #0E84C9",
"C.	c #0F87CA",
"D.	c #138CCD",
"E.	c #1691D1",
"F.	c #1A95D4",
"G.	c #22A2DC",
"H.	c #28A9E1",
"I.	c #E4E7EA",
"J.	c #738392",
"K.	c #414552",
"L.	c #434754",
"M.	c #8B8D96",
"N.	c #C1DDEF",
"O.	c #0679C1",
"P.	c #087CC3",
"Q.	c #097EC5",
"R.	c #0B81C6",
"S.	c #0D83C8",
"T.	c #1088CB",
"U.	c #128ACD",
"V.	c #148DCE",
"W.	c #1792D1",
"X.	c #1E9CD8",
"Y.	c #209EDA",
"Z.	c #22A0DB",
"`.	c #828F9C",
" +	c #404451",
".+	c #424653",
"++	c #B9BABF",
"@+	c #81BBDF",
"#+	c #0578C1",
"$+	c #077BC2",
"%+	c #097DC4",
"&+	c #0A7FC6",
"*+	c #158ECF",
"=+	c #1C98D6",
"-+	c #24A4DE",
";+	c #26A7DF",
">+	c #9DA7B1",
",+	c #404350",
"'+	c #424552",
")+	c #D0D1D4",
"!+	c #9AD0EB",
"~+	c #22A1DB",
"{+	c #B7BEC6",
"]+	c #3F424F",
"^+	c #414451",
"/+	c #1D9BD7",
"(+	c #B7BEC5",
"_+	c #707E8D",
":+	c #718190",
"<+	c #3E414E",
"[+	c #CFD0D4",
"}+	c #F0F8FC",
"|+	c #99CEEB",
"1+	c #1792D2",
"2+	c #1995D3",
"3+	c #1D99D7",
"4+	c #24A3DD",
"5+	c #25A6DF",
"6+	c #B6BDC5",
"7+	c #6F7D8C",
"8+	c #3D404D",
"9+	c #B7B9BE",
"0+	c #90C1E2",
"a+	c #0274BE",
"b+	c #0476BF",
"c+	c #077BC3",
"d+	c #0A80C6",
"e+	c #0E85C9",
"f+	c #1087CB",
"g+	c #118ACC",
"h+	c #1893D3",
"i+	c #32AAE0",
"j+	c #9AA4AE",
"k+	c #3C3F4C",
"l+	c #878992",
"m+	c #CFE4F2",
"n+	c #0173BD",
"o+	c #0375BF",
"p+	c #0577C0",
"q+	c #067AC2",
"r+	c #0B81C7",
"s+	c #0D84C8",
"t+	c #1189CB",
"u+	c #128BCD",
"v+	c #148DCF",
"w+	c #68C0E7",
"x+	c #7E8A97",
"y+	c #3C3E4B",
"z+	c #4B4E5A",
"A+	c #2083C5",
"B+	c #0579C1",
"C+	c #097EC4",
"D+	c #0B80C6",
"E+	c #128ACC",
"F+	c #158FCF",
"G+	c #ACDCF2",
"H+	c #E3E5E8",
"I+	c #B7B8BD",
"J+	c #DFEDF7",
"K+	c #C0DCEF",
"L+	c #C0DDEF",
"M+	c #C1DEF0",
"N+	c #C2DFF1",
"O+	c #C2E0F1",
"P+	c #C3E0F1",
"Q+	c #89C5E6",
"R+	c #3CABDF",
"S+	c #A1A9B2",
"T+	c #575A65",
"U+	c #C7E7F5",
"V+	c #ECEDEF",
"W+	c #677482",
"X+	c #6B7887",
"Y+	c #3D3F4C",
"Z+	c #9FA1A7",
"`+	c #97CBE9",
" @	c #8ECCEB",
".@	c #8B949F",
"+@	c #667381",
"@@	c #687583",
"#@	c #B8B9BE",
"$@	c #DFEEF7",
"%@	c #328ECA",
"&@	c #0477C0",
"*@	c #138DCE",
"=@	c #8DCBEA",
"-@	c #9DA4AD",
";@	c #636F7E",
">@	c #4C4F5B",
",@	c #EFF6FB",
"'@	c #62A9D7",
")@	c #0578C0",
"!@	c #077AC2",
"~@	c #B7DDF1",
"{@	c #9BA2AB",
"]@	c #616C7A",
"^@	c #636E7D",
"/@	c #64717F",
"(@	c #3E404D",
"_@	c #3F4350",
":@	c #A1A3A9",
"<@	c #F3F4F4",
"[@	c #E0EEF7",
"}@	c #63ACD9",
"|@	c #278CCB",
"1@	c #4DA8D9",
"2@	c #A7D4ED",
"3@	c #EAECED",
"4@	c #858D97",
"5@	c #5E6977",
"6@	c #606B79",
"7@	c #626D7B",
"8@	c #3F414F",
"9@	c #5B5F6B",
"0@	c #B9BBC0",
"a@	c #F4F4F5",
"b@	c #F0F7FB",
"c@	c #EAEBED",
"d@	c #ABB0B7",
"e@	c #646D7A",
"f@	c #5D6876",
"g@	c #5F6A78",
"h@	c #474C59",
"i@	c #767A84",
"j@	c #A5A7AE",
"k@	c #B1B3B9",
"l@	c #D3D4D8",
"m@	c #A7ABB2",
"n@	c #9DA2A9",
"o@	c #747A85",
"p@	c #555E6C",
"q@	c #5B6472",
"r@	c #5C6775",
"s@	c #484D5A",
"t@	c #4B515F",
"u@	c #4F5663",
"v@	c #515866",
"w@	c #535A68",
"x@	c #565F6D",
"y@	c #5E6570",
"z@	c #85888D",
"A@	c #494E5B",
"B@	c #4A505E",
"C@	c #4C5260",
"D@	c #4E5562",
"E@	c #525967",
"F@	c #494B4D",
"G@	c #686868",
"H@	c #898989",
"I@	c #A8A8A8",
"J@	c #3B3B3B",
"K@	c #585858",
"L@	c #777879",
"M@	c #7E848B",
"N@	c #6D7986",
"O@	c #6E7D8B",
"P@	c #4E525B",
"Q@	c #58606D",
"R@	c #A7AEB6",
"S@	c #DBDEE2",
"T@	c #464B58",
"U@	c #9CA2AB",
"V@	c #EBEDEF",
"W@	c #4D5462",
"X@	c #545D6A",
"Y@	c #9CA3AC",
"Z@	c #434855",
"`@	c #F5F6F7",
" #	c #C9CED4",
".#	c #B0B5BC",
"+#	c #586270",
"@#	c #697380",
"##	c #C0C6CD",
"$#	c #555E6B",
"%#	c #B0B6BD",
"&#	c #F6F7F8",
"*#	c #798896",
"=#	c #444956",
"-#	c #737D89",
";#	c #484D5B",
">#	c #C4C8CD",
",#	c #525A68",
"'#	c #596371",
")#	c #747D8A",
"!#	c #4F5664",
"~#	c #5D6775",
"{#	c #CED1D6",
"]#	c #EDEFF0",
"^#	c #454A57",
"/#	c #5A6371",
"(#	c #87909A",
"_#	c #A5AEB8",
":#	c #494E5C",
"<#	c #505764",
"[#	c #575F6D",
"}#	c #D8DADE",
"|#	c #E4E6E9",
"1#	c #4D5360",
"2#	c #88909B",
"3#	c #818E9B",
"4#	c #434654",
"5#	c #818B97",
"6#	c #6B7987",
"7#	c #616C7B",
"                                                      . + @ # $ % &                             ",
"                                                * = - ; > , ' ) ! ~ { ] ^                       ",
"                                            / ( _ : < [ } | 1 2 3 4 5 6 7 8 9                   ",
"                                          0 a b c d e f g h i j k l m n o ^ p q                 ",
"                                        r s t u v w x y z A B C D E F G H I 8 J K               ",
"                                      L M N O P Q R S T U V W X Y Z `  ...+.@.#.q $.            ",
"                                    %.&.*.=.-.;.>.,.'.).!.z ~.B C D E {.].^./.(.J _.            ",
"                                    :.<.[.+.}.|.|.1.2.3.4.5.6.7.X 8.Z `  .9.0.+.a.q $.          ",
"  b.b.b.b.b.b.b.b.b.b.b.b.b.b.    c.d.e.+.+.+.+.+.+.+.+.+.+.+.+.B f.g.E {.].h.i.j.J _.k.        ",
"                                  l.m.n.+.+.+.+.+.+.+.+.+.+.+.o.W X 8.Z p. .q.r./.s.q t.        ",
"                                u.v.w.+.x.y.z.A.B.C.>.D.'.E.!.F.~.B f.g.G.{.].H.i.I.J J.        ",
"                                K.L.M.N.O.P.Q.R.S.;.T.U.V.S W.U A W X.Y.Z.p. .q.0.+.`.q $.      ",
"                                 +.+++@+#+$+%+&+A.B.C.>.R *+E.!.V =+B f.g.G.-+;+H.+.>+J J.      ",
"                                ,+'+)++.+.+.+.+.+.+.+.+.+.+.+.!+U A W X.Y.~+p. .q.+.{+9 K       ",
"  b.b.b.b.b.b.b.b.b.b.b.b.b.    ]+^+)++.+.+.+.+.+.+.+.+.+.+.+.+.!.V =+/+f.Z ` -+;++.(+_+:+      ",
"                                <+,+[++.+.+.+.+.+.+.+.+.+.+.}+|+1+2+A 3+X.Y.~+4+5++.6+7+9       ",
"                                8+]+9+0+a+b+#+c+%+d+A.e+f+g+R *+T h+V =+/+f.Z ` i++.j+^ p       ",
"                                k+<+l+m+n+o+p+q+P.z.r+s+;.t+u+v+).y 2+A B X.Y.~+w++.x+7 7+      ",
"                                y+8+z++.A+a+b+B+c+C+D+A.e+f+E+R F+T h+V =+X f.Z G+H+{ ]         ",
"                                  k+<+I+J+K+L+L+M+M+N+O+P+|.1.Q+'.).y z A B C R++.S+5 6         ",
"  b.b.b.b.b.b.b.b.b.b.b.b.b.b.    y+8+T++.+.+.+.+.+.+.+.+.+.+.+.R S T U V W X U+V+W+~ X+        ",
"                                    Y+<+Z++.+.+.+.+.+.+.+.+.+.`+,.'.).!.z A  @+..@+@@@          ",
"                                    y+8+]+#@$@%@&@O.c+C+D+S.e+T.E+*@S T U =@+.-@;@)             ",
"                                      Y+<+>@#@,@'@)@!@y.z.A.B.C.>.,.'.x ~@+.{@]@^@/@            ",
"                                        (@_@K.:@<@[@}@|@Q.D+S.e+T.1@2@+.3@4@5@6@7@              ",
"                                          8@ +.+9@0@a@+.b@N+O+}.+.+.c@d@e@< f@g@                ",
"                                            ,+K.L.l.h@i@j@k@l@m@n@o@p@_ : q@r@                  ",
"                                                .+v.c.s@%.t@*.u@v@w@/ x@y@z@                    ",
"                                                      h@A@B@C@D@s E@  F@G@H@I@                  ",
"                                                                      J@K@L@M@N@O@              ",
"                                                                        P@Q@; R@S@q             ",
"                                                                      T@*./ q@U@+.a.            ",
"                                                                      L.<.v@_ 5@V@S@K           ",
"                                                                      ,+h@W@X@< Y@+.`.          ",
"                                                                      8+Z@B@0 * g@`@ #_.        ",
"                                                                         +h@D@b - .#+.`.        ",
"                                                                        (@v.&.E@+#@#`@##_.      ",
"                                                                          ^+s@r $#- %#&#*#      ",
"                                                                          <+=#t@t : -#+.{+      ",
"                                                                            K.;#u@( r@>#&#J     ",
"                                                                            <+l.L ,#'#)#+.@.    ",
"                                                                              '+:.!#x@~#{#]#J   ",
"                                                                              <+^#C@a /#(#+._#  ",
"                                                                              k+.+:#<#[#f@}#|#:+",
"                                                                                ]+c.1#a = 2#+.3#",
"                                                                                k+4#%.s _ ; 5#6#",
"                                                                                  _@T@*./ q@7#  ",
"                                                                                  8+L.<.        "};
